# xmcd
#
# Track frame offsets: 
#        150
#        19323
#        41721
#        63519
#        86742
#        108015
#        132963
#        155811
#        189159
#        212457
#        237030
#
# Disc length: 3581 seconds
#
# Revision: 0
# Processed by: cddbd v1.5.2PL0 Copyright (c) Steve Scherf et al.
# Submitted via: ExactAudioCopy v1.0b4
#
DISCID=8d0dfb0b
DTITLE=The Janeys - Get Down With The Blues
DYEAR=2013
DGENRE=Blues Rock
TTITLE0=Beginnings
TTITLE1=Led Balloon
TTITLE2=The Good Love
TTITLE3=Get Down With The Blues
TTITLE4=The Rose
TTITLE5=It's A Guitar Thing
TTITLE6=Mind Bender
TTITLE7=Hoochie Coochie Man
TTITLE8=When The Devil Comes Out
TTITLE9=It's Not My Cross To Bear
TTITLE10=Third Stone From The Sun
EXTD=
EXTT0=
EXTT1=
EXTT2=
EXTT3=
EXTT4=
EXTT5=
EXTT6=
EXTT7=
EXTT8=
EXTT9=
EXTT10=
PLAYORDER=
